<?xml version="1.0" encoding="iso-8859-1"?>
<!-- Generator: Adobe Illustrator 19.0.0, SVG Export Plug-In . SVG Version: 6.00 Build 0)  -->
<svg version="1.1" id="Layer_1" xmlns="http://www.w3.org/2000/svg" xmlns:xlink="http://www.w3.org/1999/xlink" x="0px" y="0px"
	 viewBox="0 0 512 512" style="enable-background:new 0 0 512 512;" xml:space="preserve">
<g>
	<g>
		<path d="M377,260.346c-0.597-1.997-1.506-3.756-2.728-5.276c-1.223-1.52-2.743-2.742-4.561-3.667
			c-1.819-0.923-3.95-1.387-6.394-1.387c-2.506,0-4.666,0.478-6.485,1.431c-1.819,0.954-3.325,2.223-4.517,3.802
			c-1.193,1.58-2.072,3.369-2.637,5.365c-0.568,1.998-0.851,4.041-0.851,6.127c0,2.146,0.297,4.218,0.895,6.215
			c0.594,1.998,1.489,3.77,2.682,5.32c1.193,1.552,2.697,2.803,4.517,3.758c1.818,0.954,3.979,1.431,6.484,1.431
			c2.505,0,4.681-0.492,6.529-1.476c1.847-0.983,3.352-2.264,4.517-3.844c1.162-1.579,2.025-3.383,2.593-5.412
			c0.565-2.027,0.85-4.083,0.85-6.171C377.894,264.415,377.594,262.345,377,260.346z"/>
	</g>
</g>
<g>
	<g>
		<path d="M288.641,173.481c-1.074-1.162-2.146-1.745-3.22-1.745h-10.553v13.595h10.999c1.074,0,2.072-0.596,2.997-1.789
			c0.923-1.192,1.387-2.863,1.387-5.008C290.251,176.329,289.715,174.645,288.641,173.481z"/>
	</g>
</g>
<g>
	<g>
		<path d="M230.067,181.978c-0.597-1.997-1.508-3.756-2.728-5.276c-1.223-1.52-2.743-2.742-4.561-3.667
			c-1.819-0.923-3.95-1.387-6.394-1.387c-2.505,0-4.665,0.478-6.484,1.431c-1.819,0.954-3.325,2.223-4.517,3.802
			c-1.193,1.58-2.072,3.369-2.637,5.365c-0.568,1.998-0.851,4.041-0.851,6.127c0,2.146,0.297,4.218,0.895,6.215
			c0.593,1.998,1.488,3.77,2.681,5.321c1.193,1.552,2.697,2.803,4.517,3.758c1.818,0.954,3.979,1.431,6.484,1.431
			c2.505,0,4.681-0.492,6.529-1.476c1.847-0.983,3.352-2.264,4.517-3.844c1.162-1.579,2.025-3.383,2.593-5.411
			c0.565-2.027,0.851-4.083,0.851-6.171C230.962,186.047,230.662,183.976,230.067,181.978z"/>
	</g>
</g>
<g>
	<g>
		<path d="M476.44,0.001L35.557,0v469.332h42.664V512l21.333-14.222L120.887,512v-42.667h355.556L476.44,0.001z M313.681,156.534
			h0.001h54.016v15.202h-18.244v48.293h-17.439v-48.293h-18.334V156.534z M257.429,156.534h0.001h29.154
			c3.099,0,5.961,0.641,8.585,1.923c2.624,1.283,4.875,2.951,6.753,5.008c1.877,2.057,3.352,4.415,4.426,7.066
			c1.074,2.654,1.61,5.32,1.61,8.004c0,3.698-0.804,7.141-2.414,10.33c-1.61,3.19-3.846,5.798-6.709,7.825l13.416,23.341h-19.675
			l-11.18-19.497h-6.528v19.496h-17.439V156.534z M174.172,250.105h-26.113v10.553h21.285v14.131h-21.285v23.61H130.62v-63.497
			h43.553V250.105z M173.591,193.784c-1.819,2.057-4.023,3.698-6.618,4.918c-2.593,1.222-5.44,1.833-8.54,1.833h-10.374v19.496
			H130.62v-63.497h27.365c3.1,0,5.961,0.641,8.586,1.923c2.623,1.283,4.874,2.951,6.751,5.008s3.354,4.415,4.426,7.066
			c1.074,2.654,1.61,5.32,1.61,8.004c0,2.803-0.506,5.531-1.519,8.183C176.823,189.37,175.408,191.726,173.591,193.784z
			 M240.081,278.945c-1.61,3.846-3.846,7.245-6.707,10.196s-6.275,5.32-10.24,7.11c-3.965,1.788-8.303,2.682-13.01,2.682
			c-4.83,0-9.213-0.923-13.147-2.772c-3.935-1.847-7.305-4.277-10.105-7.289c-2.803-3.009-4.979-6.453-6.528-10.33
			c-1.552-3.874-2.325-7.869-2.325-11.984c0-4.173,0.804-8.198,2.414-12.072c1.61-3.873,3.86-7.286,6.753-10.239
			c2.89-2.951,6.318-5.305,10.283-7.066c3.965-1.758,8.303-2.638,13.012-2.638c4.83,0,9.212,0.924,13.146,2.772
			c3.937,1.849,7.303,4.292,10.106,7.333c2.802,3.041,4.962,6.498,6.484,10.374c1.519,3.876,2.281,7.841,2.281,11.894
			C242.496,271.091,241.691,275.099,240.081,278.945z M246.251,200.577c-1.61,3.846-3.846,7.245-6.707,10.196
			c-2.862,2.951-6.275,5.32-10.24,7.11c-3.965,1.788-8.303,2.682-13.012,2.682c-4.828,0-9.212-0.924-13.147-2.772
			s-7.305-4.277-10.105-7.289c-2.803-3.009-4.979-6.453-6.528-10.33c-1.552-3.874-2.325-7.869-2.325-11.984
			c0.001-4.171,0.805-8.196,2.415-12.072c1.61-3.876,3.86-7.289,6.753-10.24c2.89-2.951,6.318-5.305,10.283-7.066
			c3.965-1.758,8.303-2.637,13.012-2.637c4.828,0,9.212,0.924,13.146,2.772c3.937,1.849,7.303,4.292,10.106,7.333
			c2.802,3.041,4.962,6.498,6.484,10.374c1.519,3.877,2.281,7.841,2.281,11.894C248.666,192.724,247.861,196.732,246.251,200.577z
			 M297.496,298.398h-46.235v-63.495h0H268.7v48.293h28.796V298.398z M322.358,298.398h-17.439v-63.495h17.439V298.398z
			 M393.185,278.946c-1.61,3.846-3.846,7.245-6.707,10.196s-6.275,5.32-10.24,7.11c-3.965,1.788-8.303,2.682-13.01,2.682
			c-4.828,0-9.212-0.923-13.147-2.772c-3.935-1.847-7.305-4.277-10.105-7.289c-2.803-3.009-4.979-6.453-6.528-10.33
			c-1.552-3.874-2.325-7.869-2.325-11.984c0-4.173,0.804-8.198,2.414-12.072c1.61-3.876,3.86-7.289,6.753-10.24
			c2.89-2.951,6.318-5.305,10.283-7.066c3.965-1.758,8.303-2.638,13.012-2.638c4.83,0,9.212,0.924,13.146,2.772
			c3.937,1.85,7.303,4.294,10.108,7.334c2.802,3.041,4.962,6.498,6.484,10.374c1.519,3.876,2.28,7.841,2.28,11.894
			C395.6,271.093,394.795,275.1,393.185,278.946z"/>
	</g>
</g>
<g>
	<g>
		<path d="M160.043,173.168c-1.074-0.954-2.146-1.432-3.22-1.432h-8.764v13.595h9.212c1.072,0,2.069-0.492,2.995-1.476
			c0.923-0.983,1.387-2.758,1.387-5.32C161.653,175.912,161.116,174.123,160.043,173.168z"/>
	</g>
</g>
<g>
	<g>
		<path d="M223.898,260.346c-0.597-1.997-1.506-3.756-2.728-5.276c-1.223-1.52-2.743-2.742-4.561-3.667
			c-1.819-0.923-3.949-1.387-6.394-1.387c-2.505,0-4.665,0.478-6.484,1.431c-1.819,0.954-3.325,2.223-4.517,3.802
			c-1.193,1.58-2.072,3.369-2.638,5.365c-0.568,1.998-0.851,4.041-0.851,6.127c0,2.146,0.297,4.218,0.895,6.215
			c0.594,1.998,1.489,3.77,2.682,5.321c1.193,1.552,2.697,2.803,4.517,3.758c1.818,0.954,3.979,1.431,6.484,1.431
			c2.505,0,4.68-0.492,6.529-1.476c1.847-0.983,3.352-2.264,4.517-3.844c1.162-1.579,2.025-3.383,2.593-5.412
			c0.565-2.027,0.85-4.083,0.85-6.171C224.792,264.415,224.492,262.345,223.898,260.346z"/>
	</g>
</g>
<g>
</g>
<g>
</g>
<g>
</g>
<g>
</g>
<g>
</g>
<g>
</g>
<g>
</g>
<g>
</g>
<g>
</g>
<g>
</g>
<g>
</g>
<g>
</g>
<g>
</g>
<g>
</g>
<g>
</g>
</svg>
