<?xml version="1.0" encoding="UTF-8"?>
<!-- Generator: Adobe Illustrator 25.4.1, SVG Export Plug-In . SVG Version: 6.00 Build 0)  -->
<svg xmlns="http://www.w3.org/2000/svg" xmlns:xlink="http://www.w3.org/1999/xlink" version="1.1" id="Capa_1" x="0px" y="0px" viewBox="0 0 512 512" style="enable-background:new 0 0 512 512;" xml:space="preserve" width="512" height="512">
<g>
	<path style="fill:#B14796;" d="M483.752,150.527c-0.004-8.609-1.845-16.216-5.569-22.744c-3.657-6.42-9.133-11.801-16.482-16.056   C401.055,76.758,340.351,41.896,279.723,6.891c-16.345-9.435-32.192-9.091-48.416,0.48   C207.169,21.607,86.312,90.848,50.299,111.708c-14.833,8.585-22.05,21.724-22.053,38.804c-0.022,70.325,0,140.647-0.022,210.975   c0.003,8.419,1.766,15.879,5.325,22.309c3.66,6.614,9.213,12.144,16.729,16.493c36.017,20.86,156.89,90.097,181.023,104.336   c16.231,9.577,32.078,9.919,48.428,0.48c60.628-35.007,121.337-69.868,181.993-104.835c7.516-4.35,13.069-9.882,16.729-16.491   c3.555-6.432,5.321-13.891,5.325-22.311C483.776,361.469,483.776,220.854,483.752,150.527L483.752,150.527z"/>
	<path style="fill:#782379;" d="M256.696,255.314L33.549,383.796c3.66,6.614,9.213,12.144,16.729,16.493   c36.017,20.86,156.89,90.097,181.023,104.336c16.231,9.577,32.078,9.919,48.428,0.48c60.628-35.007,121.337-69.868,181.993-104.835   c7.516-4.35,13.069-9.882,16.729-16.491L256.696,255.314z"/>
	<path style="fill:#962C87;" d="M483.752,150.527c-0.004-8.609-1.845-16.216-5.569-22.744l-221.487,127.53L478.451,383.78   c3.555-6.432,5.321-13.891,5.325-22.311C483.776,361.469,483.776,220.854,483.752,150.527L483.752,150.527z"/>
	<path style="fill:#FFFFFF;" d="M321.643,292.935C308.723,315.846,284.174,331.33,256,331.33c-28.002,0-52.412-15.29-65.397-37.958   c-6.307-11.016-9.934-23.769-9.934-37.373c0-41.604,33.728-75.33,75.332-75.33c27.822,0,52.102,15.099,65.152,37.536l65.843-37.916   c-26.171-45.175-75.031-75.57-130.995-75.57c-83.553,0-151.283,67.731-151.283,151.28c0,27.41,7.291,53.113,20.037,75.285   C150.859,376.699,199.859,407.28,256,407.28c56.243,0,105.321-30.703,131.388-76.253L321.643,292.935z"/>
	<path style="fill:#FFFFFF;" d="M450.197,247.349v-14.962H438.04V220.23h-14.962v12.157h-18.236V220.23h-14.963v12.157h-12.157   v14.962h12.157v18.235h-12.157v14.964h12.157v12.155h14.963v-12.155h18.236v12.155h14.962v-12.155h12.158v-14.964H438.04v-18.235   H450.197z M423.078,265.584h-18.236v-18.235h18.236V265.584z"/>
</g>















</svg>
