<svg id="Capa_1" enable-background="new 0 0 511.469 511.469" height="512" viewBox="0 0 511.469 511.469" width="512" xmlns="http://www.w3.org/2000/svg"><g><g id="Layer_x0020_3"><g><path d="m378.585 372.354c3.254-27.104 2.279-31.079 22.467-26.689l5.125.45c15.523.706 35.83-2.497 47.76-8.039 25.681-11.916 40.91-31.812 15.587-26.584-57.763 11.916-61.734-7.643-61.734-7.643 60.994-90.5 86.492-205.381 64.483-233.502-60.029-76.703-163.937-40.432-165.675-39.49l-.553.102c-11.413-2.368-24.186-3.783-38.535-4.015-26.14-.43-45.974 6.853-61.02 18.265 0 0-185.366-76.369-176.743 96.041 1.834 36.676 52.572 277.525 113.086 204.777 22.118-26.601 43.492-49.093 43.492-49.093 10.614 7.051 23.321 10.648 36.649 9.356l1.03-.878c-.323 3.303-.18 6.533.412 10.358-15.587 17.418-11.007 20.477-42.174 26.892-31.533 6.499-13.007 18.069-.915 21.093 14.663 3.667 48.585 8.861 71.511-23.226l-.913 3.661c6.115 4.892 5.702 35.164 6.569 56.792.868 21.63 2.316 41.813 6.725 53.713 4.409 11.898 9.611 42.549 50.572 33.771 34.234-7.336 60.408-17.895 62.793-116.115"/><path d="m302.436 511.469c-18.62.001-30.777-7.234-38.173-14.215-11.113-10.488-15.484-23.878-18.095-31.879-.409-1.255-.796-2.439-1.084-3.218-5.235-14.132-7.003-34.332-8.046-60.312-.154-3.842-.269-7.949-.386-12.14-.072-2.583-.155-5.574-.264-8.705-17.606 7.719-38.238 9.098-60.27 3.589-9.852-2.464-20.067-7.446-26.422-15.088-17.546 14.585-34.219 12.441-43.404 9.38-16.396-5.47-31.001-20.701-44.65-46.564-9.625-18.239-18.93-41.982-27.655-70.57-15.181-49.74-24.824-102.186-25.686-119.423-2.716-54.292 11.968-93.165 43.642-115.539 26.158-18.478 61.92-24.152 106.287-16.869 18.866 3.097 35.199 7.949 45.38 11.39 18.384-10.91 39.914-16.235 64.253-15.83 12.993.21 25.374 1.345 36.89 3.376 12.366-3.835 36.083-9.171 63.08-8.836 50.626.604 92.589 20.349 121.35 57.099 19.688 25.157 12.37 74.772 2.764 111.963-10.763 41.672-29.459 85.942-52.451 124.762 6.091-.173 14.438-1.055 25.688-3.377 28.061-5.795 35.849 10.709 37.565 15.906 8.699 26.333-28.244 45.835-39.775 51.186-14.589 6.777-38.344 10.896-57.775 10.012l-.899-.06-3.491-.306c-.104.886-.208 1.775-.309 2.645-.15 1.289-.307 2.64-.475 4.055-1.303 50.064-8.507 81.837-23.322 102.933-15.672 22.313-37.336 28.543-56.412 32.631-6.521 1.396-12.46 2.004-17.855 2.004zm-37.097-184.046c12.256 9.804 13.312 27.688 14.243 61.086.112 4.011.221 7.94.368 11.615.439 10.913 1.464 36.474 5.406 47.113.582 1.571 1.096 3.146 1.641 4.815 4.449 13.635 6.293 19.278 24.297 15.421 15.878-3.403 24.016-6.423 30.266-15.321 9.353-13.318 14.588-40.341 15.559-80.32l21.456.522-21.309-2.558c.207-1.733.398-3.369.578-4.913 1.863-16.005 3.334-28.647 14.757-36.808 7.209-5.151 15.317-5.837 22.349-5.197-5.803-5.916-7.64-11.983-8.203-14.752l-1.789-8.815 5.027-7.459c26.611-39.483 48.589-88.026 60.298-133.181 11.949-46.076 8.582-70.485 5.081-75.088-47.724-60.978-130.77-36.085-139.923-33.089l-1.603.869-8.038 1.48-4.117-.855c-10.446-2.167-22.06-3.368-34.519-3.57-19.345-.303-34.943 4.23-47.696 13.903l-9.793 7.427-11.363-4.681c-22.224-9.083-87.462-27.383-121.648-3.16-18.831 13.34-27.4 39.676-25.469 78.274.668 13.361 9.742 63.515 24.707 111.75 20.563 66.281 38.71 84.691 43.867 86.19.645-.27 2.931-1.461 6.558-5.822 22.314-26.837 43.542-49.214 44.435-50.153l12.425-13.076 15.024 9.983c5.17 3.435 10.851 5.437 16.686 5.915l35.656-30.379-5.175 52.917c-.099 1-.143 2.373.26 4.982l1.554 10.036-6.773 7.569c-.062.067-.122.136-.182.203l16.657 7.687z"/></g><path d="m469.529 311.491c-57.768 11.916-61.74-7.643-61.74-7.643 60.994-90.506 86.492-205.389 64.488-233.506-60.028-76.699-163.941-40.426-165.675-39.484l-.558.1c-11.413-2.369-24.186-3.781-38.541-4.015-26.139-.428-45.967 6.853-61.013 18.262 0 0-185.37-76.365-176.749 96.044 1.834 36.679 52.571 277.527 113.087 204.78 22.119-26.601 43.49-49.093 43.49-49.093 10.615 7.051 23.322 10.648 36.644 9.356l1.035-.878c-.322 3.303-.174 6.533.415 10.358-15.59 17.418-11.009 20.477-42.174 26.892-31.535 6.499-13.009 18.069-.914 21.093 14.663 3.667 48.587 8.861 71.508-23.226l-.914 3.661c6.108 4.892 10.398 31.824 9.679 56.238-.719 24.415-1.199 41.176 3.614 54.268s9.61 42.549 50.579 33.771c34.234-7.336 51.974-26.347 54.441-58.059 1.751-22.545 5.715-19.212 5.965-39.368l3.179-9.542c3.666-30.561.582-40.42 21.673-35.835l5.125.45c15.523.706 35.84-2.497 47.764-8.039 25.677-11.916 40.905-31.812 15.588-26.584h.004z" fill="#336791"/><g fill="#fff"><path d="m304.483 498.16c-34.472.003-45.385-27.284-49.851-38.448-6.543-16.364-7.965-77.536-6.473-130.902.11-3.952 3.406-7.042 7.355-6.956 3.952.111 7.066 3.404 6.956 7.355-1.662 59.434.682 113.252 5.454 125.187 7.396 18.486 18.619 34.659 50.31 27.866 30.569-6.554 41.442-17.56 46.536-47.104 3.895-22.573 11.601-86.856 12.554-99.556.295-3.942 3.741-6.894 7.673-6.601 3.941.295 6.897 3.731 6.601 7.673-.992 13.232-8.674 77.459-12.723 100.916-6.044 35.054-21.667 50.955-57.643 58.669-6.124 1.313-11.692 1.901-16.749 1.901z"/><path d="m119.371 366.07c-3.326 0-6.344-.611-8.96-1.484-22.356-7.456-43.601-43.704-63.146-107.736-14.85-48.649-24.257-99.447-25.083-115.963-2.455-49.082 10.21-83.823 37.645-103.26 54.202-38.401 145.235-1.889 149.084-.317 3.658 1.496 5.412 5.675 3.917 9.334-1.496 3.66-5.674 5.413-9.334 3.917-1.048-.427-87.698-35.079-135.417-1.236-23.16 16.425-33.791 46.99-31.597 90.846.694 13.868 9.466 63.321 24.477 112.499 17.349 56.837 37.025 92.679 53.983 98.336 2.601.868 10.518 3.508 21.978-10.271 22.019-26.491 42.248-47.636 42.45-47.846 2.736-2.855 7.266-2.951 10.12-.214 2.854 2.734 2.95 7.265.215 10.119-.199.207-20.096 21.008-41.778 47.094-10.402 12.505-20.399 16.181-28.554 16.182z"/><path d="m407.379 310.292c-1.376 0-2.767-.396-3.994-1.223-3.278-2.209-4.144-6.658-1.936-9.937 61.538-91.316 83.226-201.534 64.787-225.099-23.21-29.657-55.99-45.16-97.43-46.075-30.653-.677-55.175 7.164-59.208 8.543-.335.167-.689.31-1.059.426-4.337 1.361-7.675-1.025-8.935-3.817-1.489-3.301-.267-7.206 2.832-9.08 2.677-1.619 30.849-10.772 64.581-10.418 46.251.491 84.458 18.333 110.492 51.599 17.567 22.449 5.973 77.103.173 99.559-12.47 48.281-35.929 100.169-64.361 142.362-1.382 2.053-3.642 3.16-5.942 3.16z"/><path d="m410.538 352.625c-10.637.001-20.184-1.502-25.9-4.926-6.021-3.606-7.171-8.535-7.321-11.152-1.563-27.447 13.131-32.886 21.281-35.236-1.036-1.487-2.401-3.191-3.806-4.947-4.587-5.731-10.87-13.582-15.721-25.342-.741-1.799-3.101-6.029-5.833-10.928-14.9-26.721-45.906-82.325-25.864-110.972 9.212-13.169 27.385-18.445 54.102-15.728-3.553-10.555-12.456-30.123-28.896-49.551-19.08-22.544-52.887-49.599-105.605-50.464-26.753-.446-48.717 7.77-65.206 24.4-36.962 37.279-35.709 105.118-35.692 105.798.099 3.95-3.022 7.236-6.972 7.337-3.917.077-7.234-3.015-7.339-6.965-.08-3.024-1.475-74.526 39.787-116.201 19.346-19.537 44.774-29.167 75.656-28.683 57.508.943 94.523 30.177 115.448 54.535 22.806 26.549 33.994 55.875 34.917 65.676.739 7.862-5.301 9.342-5.992 9.486l-2.582.058c-18.028-2.887-41.322-3.755-49.9 8.507-14.902 21.3 14.207 73.502 26.637 95.793 3.194 5.728 5.501 9.865 6.564 12.441 4.071 9.87 9.39 16.517 13.664 21.856 3.802 4.75 7.098 8.869 8.311 13.762.626 1.014 8.575 11.835 53.403 2.584 11.779-2.436 18.868-.289 21.071 6.371 4.254 12.869-19.204 27.685-32.202 33.721-11.569 5.373-30.019 8.77-46.01 8.77zm-18.959-17.459c1.741 1.42 9.135 3.726 23.666 3.047 13.155-.618 27.003-3.499 35.277-7.34 9.624-4.469 16.411-9.447 20.377-13.154-.107.021-.214.043-.323.065-29.405 6.07-50.235 5.237-61.914-2.471-.729-.481-1.395-.972-2.003-1.467-.979.342-1.993.626-3.033.918-6.613 1.858-12.865 3.612-12.047 20.402z"/><path d="m201.985 372.941c-7.27 0-14.893-.978-22.807-2.959-2.272-.568-22.203-5.919-21.938-18.661.243-11.663 16.882-15.092 23.146-16.384 22.022-4.534 23.447-6.342 30.288-15.028 2.028-2.574 4.551-5.778 7.993-9.624 11.454-12.814 22.254-8.341 26.866-6.43 7.236 2.999 13.268 10.233 15.742 18.879 2.24 7.825 1.165 15.366-3.027 21.234-13.616 19.064-33.132 28.971-56.263 28.973zm-28.885-20.953c2.077 1.415 5.616 3.123 9.551 4.107 19.098 4.778 45.695 5.112 63.947-20.447 2.163-3.028 1.501-6.922.914-8.973-1.244-4.344-4.311-8.289-7.459-9.594-3.885-1.61-6.029-2.495-10.712 2.744-.001.001-.003.002-.005.004-3.143 3.511-5.414 6.394-7.417 8.937-8.738 11.093-12.738 14.857-38.646 20.192-5.352 1.104-8.438 2.214-10.173 3.03zm50.904-36.933h.011z"/><path d="m222.975 321.91c-3.473 0-6.523-2.534-7.066-6.073-.146-.951-.249-1.907-.311-2.868-16.825-.45-33.024-7.727-45.351-20.589-15.73-16.411-22.888-39.145-19.64-62.372 3.495-24.994 2.186-47.064 1.484-58.921-.196-3.312-.338-5.705-.327-7.373.015-2.182.053-7.977 18.916-17.538 6.639-3.366 19.949-9.237 34.5-10.743 24.26-2.52 40.278 8.312 45.074 30.483 12.799 59.195 1.006 85.396-7.605 104.527-1.594 3.542-3.1 6.888-4.301 10.118l-1.066 2.864c-4.511 12.09-8.406 22.532-7.224 30.241.6 3.907-2.081 7.561-5.989 8.16-.368.057-.733.084-1.094.084zm-56.841-156.111c.054 1.197.145 2.711.247 4.441.732 12.354 2.096 35.348-1.596 61.751-2.637 18.857 3.121 37.258 15.797 50.484 9.97 10.401 23.08 16.159 36.555 16.199 1.549-6.358 4.046-13.052 6.732-20.254l1.06-2.843c1.368-3.684 2.971-7.244 4.667-11.011 8.229-18.283 18.47-41.036 6.666-95.625-2.281-10.544-7.765-16.674-16.769-18.736-19.725-4.519-47.39 10.303-53.359 15.594z"/><g><path d="m205.53 162.734c-.331 2.342 4.287 8.59 10.308 9.425 6.011.838 11.156-4.045 11.482-6.384.326-2.342-4.286-4.921-10.31-5.759-6.014-.84-11.162.382-11.48 2.718z"/><path d="m217.142 174.635c-.541 0-1.086-.036-1.633-.112-3.782-.525-7.602-2.907-10.216-6.372-.923-1.225-2.427-3.598-2.126-5.745.112-.811.528-1.986 1.868-3.001 2.387-1.807 7.102-2.479 12.305-1.751 3.198.445 6.171 1.367 8.37 2.596 3.866 2.16 4.15 4.595 3.973 5.855-.505 3.622-6.236 8.53-12.541 8.53zm-9.213-11.448c.366 1.599 3.787 5.991 8.236 6.609 4.487.617 8.198-2.925 8.742-4.216-.519-.76-3.276-2.513-8.226-3.202-4.879-.679-7.995.22-8.752.809z"/></g><g><path d="m388.618 157.96c.326 2.342-4.286 8.59-10.308 9.425-6.016.838-11.16-4.045-11.49-6.384-.318-2.342 4.295-4.921 10.312-5.759s11.16.382 11.487 2.72v-.002z"/><path d="m376.959 168.671c-5.926 0-10.93-4.732-11.321-7.503-.486-3.564 5.332-6.273 11.328-7.108 6.001-.838 12.337.18 12.832 3.736h.001c.222 1.599-.991 4.058-3.092 6.264-1.378 1.448-4.281 3.959-8.235 4.507-.508.071-1.015.104-1.513.104zm3.902-12.507c-1.072 0-2.263.077-3.564.259-6.284.876-9.436 3.377-9.295 4.418.225 1.602 4.757 6.101 10.143 5.363 3.237-.449 5.673-2.566 6.836-3.788 1.817-1.909 2.539-3.688 2.457-4.291-.116-.822-2.474-1.961-6.577-1.961z"/></g><path d="m397.289 292.868c-1.369 0-2.752-.393-3.976-1.211-3.285-2.199-4.164-6.645-1.965-9.93 13.984-20.885 11.416-42.254 8.932-62.919-1.065-8.867-2.167-18.034-1.881-26.854.289-9.061 1.44-16.527 2.552-23.746 1.311-8.511 2.549-16.551 2.035-26.069-.213-3.948 2.814-7.32 6.762-7.533 3.948-.194 7.32 2.814 7.533 6.762.593 11.001-.818 20.16-2.181 29.019-1.047 6.799-2.131 13.828-2.392 22.028-.251 7.733.738 15.967 1.787 24.685 2.664 22.171 5.684 47.3-11.251 72.592-1.382 2.062-3.647 3.176-5.955 3.176z"/></g><path d="" fill="none" stroke="#fff" stroke-linecap="round" stroke-linejoin="round" stroke-width="3"/></g></g></svg>